<svg width="370" height="174" viewBox="0 0 370 174" fill="none" xmlns="http://www.w3.org/2000/svg">
<path d="M106.988 2.3C107.588 3.23333 108.821 5.03333 110.688 7.7C112.621 10.3 114.821 13.3333 117.288 16.8C119.821 20.2667 122.488 23.9667 125.288 27.9C128.088 31.7667 130.721 35.4333 133.188 38.9C135.655 42.3 137.788 45.2667 139.588 47.8C141.455 50.3333 142.688 52 143.288 52.8C143.488 52.4667 144.121 51.5667 145.188 50.1C146.255 48.6333 147.555 46.8 149.088 44.6C150.688 42.4 152.488 39.9333 154.488 37.2C156.488 34.4 158.521 31.5667 160.588 28.7C162.721 25.7667 164.788 22.8667 166.788 20C168.855 17.1333 170.755 14.5333 172.488 12.2C174.221 9.8 175.688 7.73333 176.888 6C178.155 4.2 179.055 2.96666 179.588 2.3V78H167.988V37.4C167.988 36.8667 168.021 36.3 168.088 35.7C168.221 35.1 168.288 34.6667 168.288 34.4C167.688 35.2 166.721 36.5667 165.388 38.5C164.121 40.3667 162.621 42.5333 160.888 45C159.221 47.4 157.455 49.9667 155.588 52.7C153.721 55.3667 151.955 57.9 150.288 60.3C148.621 62.7 147.155 64.8333 145.888 66.7C144.621 68.5 143.755 69.7667 143.288 70.5C142.821 69.9 141.888 68.6667 140.488 66.8C139.155 64.8667 137.555 62.6333 135.688 60.1C133.888 57.5667 131.955 54.8667 129.888 52C127.888 49.1333 126.021 46.4667 124.288 44C122.555 41.5333 121.055 39.4333 119.788 37.7C118.521 35.9 117.788 34.8 117.588 34.4C117.588 34.6667 117.621 35.1 117.688 35.7C117.821 36.3 117.888 36.8667 117.888 37.4V78H106.988V2.3ZM189.664 57.5C189.664 54.4333 190.231 51.5667 191.364 48.9C192.564 46.1667 194.164 43.8 196.164 41.8C198.164 39.7333 200.464 38.1 203.064 36.9C205.731 35.7 208.564 35.1 211.564 35.1C213.564 35.1 215.398 35.3667 217.064 35.9C218.731 36.3667 220.164 36.9667 221.364 37.7C222.564 38.4333 223.531 39.2 224.264 40C224.998 40.8 225.498 41.5 225.764 42.1L226.164 36.2H234.364V78H225.764V72.7C225.431 73.2333 224.898 73.8667 224.164 74.6C223.431 75.3333 222.464 76.0333 221.264 76.7C220.131 77.3 218.764 77.8333 217.164 78.3C215.564 78.7667 213.731 79 211.664 79C208.464 79 205.498 78.4333 202.764 77.3C200.098 76.1 197.798 74.5333 195.864 72.6C193.931 70.6 192.398 68.3 191.264 65.7C190.198 63.1 189.664 60.3667 189.664 57.5ZM198.264 57C198.264 58.9333 198.598 60.7333 199.264 62.4C199.998 64.0667 200.964 65.5 202.164 66.7C203.364 67.9 204.798 68.8667 206.464 69.6C208.131 70.2667 209.964 70.6 211.964 70.6C213.964 70.6 215.798 70.2667 217.464 69.6C219.198 68.8667 220.664 67.9 221.864 66.7C223.131 65.4333 224.098 64 224.764 62.4C225.431 60.7333 225.764 58.9333 225.764 57C225.764 55.0667 225.431 53.3 224.764 51.7C224.098 50.0333 223.131 48.6 221.864 47.4C220.664 46.2 219.198 45.2667 217.464 44.6C215.798 43.8667 213.964 43.5 211.964 43.5C209.964 43.5 208.131 43.8667 206.464 44.6C204.798 45.2667 203.364 46.2 202.164 47.4C200.964 48.6 199.998 50.0333 199.264 51.7C198.598 53.3 198.264 55.0667 198.264 57ZM249.973 17.8H258.473V36.3H269.673V43.9H258.473V78H249.973V43.9H242.473V36.3H249.973V17.8ZM276.744 0.299999H285.244V46.3C286.711 42.9667 288.777 40.3 291.444 38.3C294.111 36.2333 297.544 35.1667 301.744 35.1C306.011 35.0333 309.411 36.1667 311.944 38.5C314.544 40.8333 315.911 43.8667 316.044 47.6V78H307.444V51.5C307.311 49.3667 306.577 47.5667 305.244 46.1C303.911 44.5667 301.811 43.7333 298.944 43.6C296.944 43.6 295.111 43.9667 293.444 44.7C291.777 45.3667 290.344 46.3 289.144 47.5C287.944 48.7 286.977 50.1333 286.244 51.8C285.577 53.4667 285.244 55.3 285.244 57.3V78H276.744V0.299999ZM363.023 73.1C361.023 74.9 358.59 76.3333 355.723 77.4C352.856 78.4667 349.923 79 346.923 79C343.856 79 340.956 78.4333 338.223 77.3C335.556 76.1 333.223 74.5333 331.223 72.6C329.223 70.6 327.623 68.2667 326.423 65.6C325.29 62.9333 324.723 60.1 324.723 57.1C324.723 54.1 325.29 51.2667 326.423 48.6C327.623 45.9333 329.223 43.6 331.223 41.6C333.223 39.6 335.523 38.0333 338.123 36.9C340.79 35.7 343.623 35.1 346.623 35.1C351.356 35.1 355.456 36.5333 358.923 39.4C362.456 42.2 364.99 45.9 366.523 50.5C364.456 51.2333 362.09 52.1333 359.423 53.2C356.756 54.2667 353.99 55.4 351.123 56.6C348.256 57.7333 345.39 58.8667 342.523 60C339.656 61.1333 336.99 62.1667 334.523 63.1C335.656 65.3667 337.29 67.2 339.423 68.6C341.623 69.9333 344.056 70.6 346.723 70.6C348.523 70.6 350.323 70.2667 352.123 69.6C353.99 68.9333 355.49 68.0333 356.623 66.9L363.023 73.1ZM355.823 48.5C355.023 46.8333 353.756 45.6 352.023 44.8C350.29 43.9333 348.523 43.5 346.723 43.5C344.79 43.5 342.99 43.8667 341.323 44.6C339.723 45.3333 338.323 46.3333 337.123 47.6C335.923 48.8 334.956 50.2 334.223 51.8C333.556 53.4 333.223 55.0333 333.223 56.7C333.223 57.0333 333.223 57.2667 333.223 57.4C333.29 57.5333 333.323 57.6333 333.323 57.7C335.056 57.0333 336.923 56.3 338.923 55.5C340.99 54.6333 343.023 53.8 345.023 53C347.023 52.1333 348.956 51.3333 350.823 50.6C352.69 49.8 354.356 49.1 355.823 48.5ZM105.099 97.3C105.699 98.2333 106.933 100.033 108.799 102.7C110.733 105.3 112.933 108.333 115.399 111.8C117.933 115.267 120.599 118.967 123.399 122.9C126.199 126.767 128.833 130.433 131.299 133.9C133.766 137.3 135.899 140.267 137.699 142.8C139.566 145.333 140.799 147 141.399 147.8C141.599 147.467 142.233 146.567 143.299 145.1C144.366 143.633 145.666 141.8 147.199 139.6C148.799 137.4 150.599 134.933 152.599 132.2C154.599 129.4 156.633 126.567 158.699 123.7C160.833 120.767 162.899 117.867 164.899 115C166.966 112.133 168.866 109.533 170.599 107.2C172.333 104.8 173.799 102.733 174.999 101C176.266 99.2 177.166 97.9667 177.699 97.3V173H166.099V132.4C166.099 131.867 166.133 131.3 166.199 130.7C166.333 130.1 166.399 129.667 166.399 129.4C165.799 130.2 164.833 131.567 163.499 133.5C162.233 135.367 160.733 137.533 158.999 140C157.333 142.4 155.566 144.967 153.699 147.7C151.833 150.367 150.066 152.9 148.399 155.3C146.733 157.7 145.266 159.833 143.999 161.7C142.733 163.5 141.866 164.767 141.399 165.5C140.933 164.9 139.999 163.667 138.599 161.8C137.266 159.867 135.666 157.633 133.799 155.1C131.999 152.567 130.066 149.867 127.999 147C125.999 144.133 124.133 141.467 122.399 139C120.666 136.533 119.166 134.433 117.899 132.7C116.633 130.9 115.899 129.8 115.699 129.4C115.699 129.667 115.733 130.1 115.799 130.7C115.933 131.3 115.999 131.867 115.999 132.4V173H105.099V97.3ZM187.776 152.5C187.776 149.433 188.342 146.567 189.476 143.9C190.676 141.167 192.276 138.8 194.276 136.8C196.276 134.733 198.576 133.1 201.176 131.9C203.842 130.7 206.676 130.1 209.676 130.1C211.676 130.1 213.509 130.367 215.176 130.9C216.842 131.367 218.276 131.967 219.476 132.7C220.676 133.433 221.642 134.2 222.376 135C223.109 135.8 223.609 136.5 223.876 137.1L224.276 131.2H232.476V173H223.876V167.7C223.542 168.233 223.009 168.867 222.276 169.6C221.542 170.333 220.576 171.033 219.376 171.7C218.242 172.3 216.876 172.833 215.276 173.3C213.676 173.767 211.842 174 209.776 174C206.576 174 203.609 173.433 200.876 172.3C198.209 171.1 195.909 169.533 193.976 167.6C192.042 165.6 190.509 163.3 189.376 160.7C188.309 158.1 187.776 155.367 187.776 152.5ZM196.376 152C196.376 153.933 196.709 155.733 197.376 157.4C198.109 159.067 199.076 160.5 200.276 161.7C201.476 162.9 202.909 163.867 204.576 164.6C206.242 165.267 208.076 165.6 210.076 165.6C212.076 165.6 213.909 165.267 215.576 164.6C217.309 163.867 218.776 162.9 219.976 161.7C221.242 160.433 222.209 159 222.876 157.4C223.542 155.733 223.876 153.933 223.876 152C223.876 150.067 223.542 148.3 222.876 146.7C222.209 145.033 221.242 143.6 219.976 142.4C218.776 141.2 217.309 140.267 215.576 139.6C213.909 138.867 212.076 138.5 210.076 138.5C208.076 138.5 206.242 138.867 204.576 139.6C202.909 140.267 201.476 141.2 200.276 142.4C199.076 143.6 198.109 145.033 197.376 146.7C196.709 148.3 196.376 150.067 196.376 152ZM248.084 112.8H256.584V131.3H267.784V138.9H256.584V173H248.084V138.9H240.584V131.3H248.084V112.8ZM273.755 115.2C273.755 113.6 274.322 112.267 275.455 111.2C276.655 110.133 277.922 109.6 279.255 109.6C280.589 109.6 281.822 110.133 282.955 111.2C284.089 112.267 284.655 113.6 284.655 115.2C284.655 116.8 284.089 118.133 282.955 119.2C281.822 120.2 280.589 120.7 279.255 120.7C277.922 120.7 276.655 120.2 275.455 119.2C274.322 118.133 273.755 116.8 273.755 115.2ZM283.355 173H274.855V131.2H283.355V173Z" fill="white"/>
<path d="M361.279 173H297.943V159.116H361.279V173Z" fill="#2E81FF"/>
<path d="M16.94 78V27.25H24.64V70.72H49.84V78H16.94ZM52.1182 63.3C52.1182 61.2 52.5149 59.2167 53.3082 57.35C54.1482 55.4833 55.2682 53.8733 56.6682 52.52C58.0682 51.12 59.7016 50.0233 61.5682 49.23C63.4816 48.39 65.5349 47.97 67.7282 47.97C69.9216 47.97 71.9516 48.39 73.8182 49.23C75.7316 50.0233 77.3649 51.12 78.7182 52.52C80.1182 53.8733 81.1916 55.4833 81.9382 57.35C82.7316 59.2167 83.1282 61.2 83.1282 63.3C83.1282 65.4 82.7316 67.3833 81.9382 69.25C81.1916 71.1167 80.1182 72.75 78.7182 74.15C77.3649 75.55 75.7316 76.67 73.8182 77.51C71.9516 78.3033 69.8982 78.7 67.6582 78.7C65.5116 78.7 63.4816 78.3267 61.5682 77.58C59.7016 76.8333 58.0682 75.7833 56.6682 74.43C55.2682 73.0767 54.1482 71.4667 53.3082 69.6C52.5149 67.6867 52.1182 65.5867 52.1182 63.3ZM58.0682 63.37C58.0682 64.6767 58.3016 65.9133 58.7682 67.08C59.2816 68.2 59.9582 69.2033 60.7982 70.09C61.6849 70.93 62.6882 71.6067 63.8082 72.12C64.9749 72.5867 66.2116 72.82 67.5182 72.82C68.8249 72.82 70.0616 72.5867 71.2282 72.12C72.3949 71.6067 73.3982 70.93 74.2382 70.09C75.1249 69.2033 75.8249 68.2 76.3382 67.08C76.8516 65.9133 77.1082 64.6767 77.1082 63.37C77.1082 62.0633 76.8516 60.8267 76.3382 59.66C75.8249 58.4933 75.1249 57.49 74.2382 56.65C73.3982 55.7633 72.3949 55.0867 71.2282 54.62C70.0616 54.1067 68.8249 53.85 67.5182 53.85C66.2116 53.85 64.9749 54.1067 63.8082 54.62C62.6882 55.0867 61.6849 55.7633 60.7982 56.65C59.9582 57.49 59.2816 58.4933 58.7682 59.66C58.3016 60.8267 58.0682 62.0633 58.0682 63.37ZM13.7019 118.44C13.7019 116.247 14.0986 114.217 14.8919 112.35C15.6852 110.437 16.7586 108.803 18.1119 107.45C19.4652 106.05 21.0519 104.953 22.8719 104.16C24.6919 103.367 26.6286 102.97 28.6819 102.97C30.2686 102.97 31.6686 103.18 32.8819 103.6C34.1419 104.02 35.1919 104.51 36.0319 105.07C36.8719 105.63 37.5252 106.19 37.9919 106.75C38.5052 107.263 38.8319 107.637 38.9719 107.87C38.9719 107.217 39.0186 106.54 39.1119 105.84C39.2052 105.093 39.2519 104.393 39.2519 103.74H44.9919V131.67C44.9919 136.523 43.5686 140.303 40.7219 143.01C37.8752 145.717 34.0252 147.07 29.1719 147.07C27.4919 147.07 25.9752 146.883 24.6219 146.51C23.3152 146.183 22.1019 145.74 20.9819 145.18C19.9086 144.62 18.9052 143.967 17.9719 143.22C17.0852 142.473 16.1986 141.703 15.3119 140.91L19.1619 136.85C20.6086 138.203 22.0786 139.277 23.5719 140.07C25.1119 140.863 26.9319 141.26 29.0319 141.26C32.1586 141.26 34.5852 140.513 36.3119 139.02C38.0386 137.527 38.9252 135.45 38.9719 132.79V130.76C38.9719 130.387 39.0186 129.99 39.1119 129.57C39.2052 129.103 39.2519 128.753 39.2519 128.52C38.8319 129.08 38.2952 129.687 37.6419 130.34C37.0352 130.947 36.3119 131.507 35.4719 132.02C34.6319 132.487 33.6519 132.883 32.5319 133.21C31.4119 133.537 30.1519 133.7 28.7519 133.7C26.5586 133.7 24.5519 133.303 22.7319 132.51C20.9119 131.717 19.3252 130.643 17.9719 129.29C16.6186 127.89 15.5686 126.28 14.8219 124.46C14.0752 122.593 13.7019 120.587 13.7019 118.44ZM19.7219 118.3C19.7219 119.653 19.9552 120.913 20.4219 122.08C20.9352 123.247 21.6119 124.25 22.4519 125.09C23.2919 125.93 24.2952 126.607 25.4619 127.12C26.6286 127.587 27.9119 127.82 29.3119 127.82C30.7119 127.82 31.9952 127.587 33.1619 127.12C34.3752 126.607 35.4019 125.93 36.2419 125.09C37.1286 124.203 37.8052 123.2 38.2719 122.08C38.7386 120.913 38.9719 119.653 38.9719 118.3C38.9719 116.947 38.7386 115.71 38.2719 114.59C37.8052 113.423 37.1286 112.42 36.2419 111.58C35.4019 110.74 34.3752 110.087 33.1619 109.62C31.9952 109.107 30.7119 108.85 29.3119 108.85C27.9119 108.85 26.6286 109.107 25.4619 109.62C24.2952 110.087 23.2919 110.74 22.4519 111.58C21.6119 112.42 20.9352 113.423 20.4219 114.59C19.9552 115.71 19.7219 116.947 19.7219 118.3ZM51.3663 118.3C51.3663 116.2 51.763 114.217 52.5563 112.35C53.3963 110.483 54.5163 108.873 55.9163 107.52C57.3163 106.12 58.9496 105.023 60.8163 104.23C62.7296 103.39 64.783 102.97 66.9763 102.97C69.1696 102.97 71.1996 103.39 73.0663 104.23C74.9796 105.023 76.613 106.12 77.9663 107.52C79.3663 108.873 80.4396 110.483 81.1863 112.35C81.9796 114.217 82.3763 116.2 82.3763 118.3C82.3763 120.4 81.9796 122.383 81.1863 124.25C80.4396 126.117 79.3663 127.75 77.9663 129.15C76.613 130.55 74.9796 131.67 73.0663 132.51C71.1996 133.303 69.1463 133.7 66.9063 133.7C64.7596 133.7 62.7296 133.327 60.8163 132.58C58.9496 131.833 57.3163 130.783 55.9163 129.43C54.5163 128.077 53.3963 126.467 52.5563 124.6C51.763 122.687 51.3663 120.587 51.3663 118.3ZM57.3163 118.37C57.3163 119.677 57.5496 120.913 58.0163 122.08C58.5296 123.2 59.2063 124.203 60.0463 125.09C60.933 125.93 61.9363 126.607 63.0563 127.12C64.223 127.587 65.4596 127.82 66.7663 127.82C68.073 127.82 69.3096 127.587 70.4763 127.12C71.643 126.607 72.6463 125.93 73.4863 125.09C74.373 124.203 75.073 123.2 75.5863 122.08C76.0996 120.913 76.3563 119.677 76.3563 118.37C76.3563 117.063 76.0996 115.827 75.5863 114.66C75.073 113.493 74.373 112.49 73.4863 111.65C72.6463 110.763 71.643 110.087 70.4763 109.62C69.3096 109.107 68.073 108.85 66.7663 108.85C65.4596 108.85 64.223 109.107 63.0563 109.62C61.9363 110.087 60.933 110.763 60.0463 111.65C59.2063 112.49 58.5296 113.493 58.0163 114.66C57.5496 115.827 57.3163 117.063 57.3163 118.37Z" fill="#2E81FF"/>
</svg>
