<svg width="25" height="25" viewBox="0 0 25 25" fill="none" xmlns="http://www.w3.org/2000/svg">
<path d="M12.5 0L15.0989 0.273155L17.5842 1.08068L19.8473 2.38729L21.7893 4.13587L23.3253 6.25L24.3882 8.63729L24.9315 11.1934V13.8066L24.3882 16.3627L23.3253 18.75L21.7893 20.8641L19.8473 22.6127L17.5842 23.9193L15.0989 24.7268L12.5 25L9.9011 24.7268L7.41579 23.9193L5.15268 22.6127L3.21069 20.8641L1.67468 18.75L0.611794 16.3627L0.0684767 13.8066V11.1934L0.611794 8.63729L1.67468 6.25L3.21069 4.13587L5.15268 2.38729L7.41579 1.08068L9.9011 0.273155L12.5 0Z" fill="#1CA0FF"/>
</svg>
